<svg xmlns="http://www.w3.org/2000/svg" viewBox="0 0 215 81">
  <path fill="#A07400" d="m35.955 0-1.557.04-1.546.123-1.517.19-1.505.27-1.476.34-1.435.408-1.407.471-1.383.557-1.355.615-1.313.662-1.273.732-1.232.802-1.192.854-1.15.894-1.099.964-1.057 1-1.017 1.074-.944 1.098-.91 1.151-.85 1.196-.79 1.248-.744 1.273-.663 1.314-.61 1.358-.557 1.383-.472 1.424-.418 1.451-.338 1.48-.272 1.506-.204 1.516-.122 1.562-.04 1.574h-.041v36.496h60.938V30.53l-.04-1.574-.123-1.562-.203-1.516-.273-1.505-.35-1.48-.422-1.453-.472-1.423-.557-1.383-.61-1.358-.675-1.314-.733-1.272-.8-1.249-.85-1.196-.895-1.15-.964-1.099-1-1.073-1.07-1-1.098-.965-1.151-.894-1.192-.854-1.232-.802-1.273-.732-1.314-.662-1.342-.615-1.382-.557-1.408-.471L43.54.964 42.076.622 40.57.354 39.054.163 37.513.04 35.955 0Z"/>
  <path fill="#fff" fill-rule="evenodd" d="m22.583 46.728-.325.31-.31.312-.296.354-.285.362-.268.395-.256.422-.244.432-.122.231-.094.244-.11.228-.093.26-.094.244-.081.273-.081.256-.082.273-.069.28-.053.289-.065.285-.045.297-.04.313-.04.309-.025.313-.012.325-.017.326v11.847l2.282-.88v-9.881l.016-.33.012-.325.029-.31.036-.313.04-.309.058-.3.106-.57.069-.285.081-.272.081-.256.082-.273.093-.24.094-.26.11-.228.105-.248.11-.228.122-.215.122-.22.256-.419.269-.394.284-.366.297-.354.326-.325.309-.297.134-.106.122-.081.122-.082.122-.056-.11-.245-.122-.231-.134-.187-.146-.175-.15-.15-.164-.123-.08-.053-.094-.04-.082-.029-.093-.04-.082-.017-.093-.024h-.285l-.093.012-.11.029-.094.024-.203.07-.216.109-.215.146zm7.321 20.298h26.068V39.627l-26.068-3.2zm7.21-17.402.012-.301.013-.301.04-.289.053-.285.07-.272.08-.273.094-.272.11-.244.122-.26.138-.232.15-.232.163-.232.163-.22.191-.203.191-.19.191-.192.22-.163.22-.179.231-.15.232-.138.244-.139.26-.122.26-.097.261-.098.273-.081.288-.07.29-.052.284-.04.289-.03.3-.016.302.017.313.012.3.04.314.041.3.07.29.08.3.082.273.11.289.11.272.138.26.138.26.15.245.163.248.18.232.178.22.204.219.19.406.44.18.232.178.231.163.245.163.26.138.244.138.272.11.273.11.272.097.273.082.284.069.29.04.3.041.289.029.3v14.723l-12.059-1.053.041-14.41zm19.838-15.902V30.95L37.724 18.842V10.61l2.806.638.781-.598V9.456l-3.587-.891v-6.1l-1.553-.415-1.054.95v5.07l-3.786-.944-.773.72v1.139l4.56 1.09v8.601l-18.25 16.116v1.31l12.06-6.702-.041 2.989 30.998 4.184v-2.407zm9.871 36.236H4.827l-.866 3.912h63.744z" clip-rule="evenodd"/>
  <path fill="#fff" d="m87.238 13.363-9.227 9.225v35.219l9.227 9.218h20.932l9.229-9.222v-9.176H105.25v5.328l-2.318 2.31H92.477l-2.314-2.31V26.85l-4.026-2.727h16.795l2.319 2.31v5.13h12.148v-8.98l-9.229-9.22H87.238zm34.625 0v10.76h3.144v32.146h-3.144v10.76h32.906l9.227-9.223V43.201l-3.327-3.326 3.327-3.322V22.582l-9.227-9.219h-32.906zm73.176 0v10.76h4.006v29.83l-2.315 2.31h-10.455l-2.318-2.31V26.849l-4.027-2.725h8.037v-10.76h-19.303v10.76h3.144v33.682l9.227 9.221h20.934l9.227-9.225v-33.68h3.144v-10.76h-19.3zm-61.91 10.76h16.406l2.314 2.314v5.748l-2.314 2.313h-12.377l-.004-.004V26.85l-4.025-2.727zm4.025 21.133h12.375l2.317 2.314v6.385l-2.317 2.315h-12.375V45.256zM4.824 69.957l-.865 3.912h63.744l-.883-3.912H4.824zm-4 6.521-.826 3.909h71.666l-.842-3.909H.824z"/>
</svg>
